<svg width="172" height="268" viewBox="0 0 172 268" fill="none" xmlns="http://www.w3.org/2000/svg">
<path d="M172 0L172 182C172 229.496 133.496 268 86 268C38.5035 268 -2.52904e-05 229.496 -2.32143e-05 182L-1.52588e-05 -7.51836e-06L172 0Z" fill="#7DEDB5"/>
<path d="M56.2876 197.415C55.0181 197.411 53.7785 197.03 52.7252 196.321C51.672 195.613 50.8524 194.608 50.3699 193.433C49.8875 192.259 49.7638 190.968 50.0146 189.724C50.2654 188.479 50.8794 187.337 51.779 186.441C52.6785 185.546 53.8234 184.937 55.0689 184.691C56.3145 184.446 57.6048 184.575 58.7769 185.062C59.9491 185.55 60.9505 186.374 61.6546 187.43C62.3588 188.486 62.7341 189.728 62.7332 190.997C62.7259 192.702 62.0436 194.334 60.8356 195.537C59.6276 196.74 57.9923 197.415 56.2876 197.415ZM56.2876 183.028C54.7093 183.035 53.1686 183.51 51.8598 184.392C50.5511 185.274 49.533 186.524 48.934 187.984C48.3351 189.444 48.1822 191.049 48.4945 192.596C48.8069 194.143 49.5705 195.563 50.6891 196.677C51.8077 197.79 53.2311 198.547 54.7796 198.853C56.3281 199.158 57.9323 198.998 59.3898 198.392C60.8472 197.786 62.0926 196.762 62.9687 195.45C63.8448 194.137 64.3124 192.594 64.3124 191.016C64.3039 188.893 63.4545 186.861 61.9504 185.364C60.4462 183.866 58.4099 183.026 56.2876 183.028Z" fill="#0D62FF"/>
<path d="M125.486 191.103C125.048 190.887 122.438 189.533 122.06 189.335C120.679 188.635 120.191 188.018 120.191 186.973C120.191 185.514 121.388 184.575 123.253 184.575C124.228 184.617 125.177 184.902 126.015 185.403C126.133 185.462 126.262 185.493 126.393 185.495C126.496 185.497 126.599 185.479 126.695 185.441C126.791 185.403 126.879 185.346 126.953 185.275C127.028 185.203 127.087 185.117 127.129 185.022C127.17 184.927 127.192 184.825 127.194 184.722C127.192 184.583 127.153 184.447 127.083 184.327C127.013 184.206 126.913 184.106 126.793 184.036C125.717 183.409 124.502 183.056 123.257 183.009C120.523 183.009 118.621 184.63 118.621 186.973C118.621 189.068 120.002 190.058 121.356 190.744C121.738 190.942 124.381 192.296 124.781 192.512C125.831 193.051 126.411 193.893 126.411 194.814C126.411 196.075 125.343 197.411 123.349 197.411C121.904 197.339 120.537 196.735 119.51 195.716L119.381 195.587L118.225 196.656L118.372 196.784C118.897 197.291 120.78 198.967 123.372 198.967C126.273 198.967 128.013 196.84 128.013 194.782C128.013 193.285 127.092 191.932 125.495 191.099" fill="#0D62FF"/>
<path d="M39.8284 184.593C41.5392 184.591 43.1812 185.266 44.3956 186.471C44.55 186.609 44.75 186.686 44.9572 186.686C45.1645 186.686 45.3645 186.609 45.5189 186.471C45.5932 186.398 45.6522 186.31 45.6925 186.214C45.7328 186.117 45.7536 186.014 45.7538 185.91C45.7584 185.805 45.7398 185.701 45.6992 185.605C45.6585 185.508 45.597 185.422 45.5189 185.352L45.4269 185.26C44.2842 184.151 42.8366 183.408 41.2693 183.126C39.7019 182.844 38.0862 183.037 36.6287 183.678C35.1713 184.32 33.9385 185.382 33.088 186.729C32.2376 188.075 31.8083 189.645 31.855 191.236C31.9017 192.828 32.4222 194.37 33.3501 195.664C34.278 196.958 35.5709 197.946 37.0634 198.501C38.556 199.057 40.1802 199.154 41.7284 198.781C43.2765 198.408 44.6781 197.581 45.7538 196.407L44.6304 195.288C43.9185 196.1 43.0141 196.72 42.0002 197.091C40.9863 197.462 39.8954 197.573 38.8276 197.413C37.7598 197.252 36.7494 196.826 35.8891 196.174C35.0288 195.521 34.3462 194.663 33.904 193.678C33.4617 192.693 33.274 191.613 33.358 190.537C33.4421 189.46 33.7952 188.422 34.3849 187.518C34.9747 186.613 35.7822 185.871 36.7333 185.36C37.6844 184.849 38.7487 184.585 39.8284 184.593Z" fill="#0D62FF"/>
<path d="M94.2391 184.593C95.0838 184.59 95.9206 184.755 96.7014 185.077C97.4821 185.399 98.1913 185.873 98.7878 186.471C98.9423 186.609 99.1423 186.686 99.3495 186.686C99.5568 186.686 99.7567 186.609 99.9112 186.471C99.9854 186.398 100.044 186.31 100.085 186.214C100.125 186.117 100.146 186.014 100.146 185.91C100.146 185.806 100.126 185.703 100.085 185.607C100.045 185.511 99.9857 185.425 99.9112 185.352L99.8191 185.26C98.6765 184.151 97.2289 183.408 95.6616 183.126C94.0942 182.844 92.4784 183.037 91.021 183.678C89.5635 184.32 88.3307 185.382 87.4803 186.729C86.6299 188.075 86.2005 189.645 86.2472 191.236C86.2939 192.828 86.8145 194.37 87.7424 195.664C88.6702 196.958 89.9631 197.946 91.4557 198.501C92.9482 199.057 94.5725 199.154 96.1206 198.781C97.6688 198.408 99.0703 197.581 100.146 196.407L99.0226 195.288C98.3102 196.1 97.405 196.721 96.3903 197.092C95.3755 197.463 94.2838 197.573 93.2153 197.412C92.1469 197.251 91.1362 196.823 90.276 196.17C89.4158 195.516 88.7337 194.656 88.2926 193.67C87.8514 192.683 87.6653 191.602 87.7513 190.525C87.8374 189.448 88.1928 188.41 88.7849 187.506C89.377 186.602 90.1868 185.862 91.1398 185.353C92.0929 184.844 93.1586 184.582 94.2391 184.593Z" fill="#0D62FF"/>
<path d="M80.6435 183.027C80.5063 183.034 80.3734 183.078 80.2591 183.154C80.1448 183.23 80.0533 183.336 79.9943 183.46C79.8654 183.709 75.2614 194.998 75.2614 194.998C75.2614 194.998 70.6574 183.69 70.5331 183.46C70.4755 183.334 70.3837 183.227 70.2681 183.15C70.1526 183.074 70.0179 183.031 69.8793 183.027C69.7143 183.032 69.5554 183.091 69.4272 183.195C69.299 183.299 69.2087 183.442 69.1703 183.603C69.0828 183.925 66.4908 198.156 66.4908 198.156C66.4908 198.156 66.4908 198.244 66.4908 198.299C66.492 198.485 66.5666 198.664 66.6984 198.796C66.8303 198.927 67.0087 199.002 67.1952 199.003C67.3615 199.001 67.5221 198.942 67.6508 198.837C67.7796 198.731 67.8689 198.586 67.9042 198.423L70.151 186.255C70.151 186.255 74.4833 196.89 74.6123 197.143C74.6677 197.276 74.7601 197.39 74.8785 197.471C74.9968 197.553 75.1361 197.599 75.2798 197.604C75.4233 197.596 75.562 197.549 75.6806 197.468C75.7991 197.387 75.893 197.274 75.952 197.143C76.0763 196.89 80.4087 186.255 80.4087 186.255L82.7291 198.907H84.1794C84.1794 198.907 81.4446 183.92 81.3525 183.598C81.3113 183.439 81.2203 183.297 81.0927 183.194C80.9651 183.09 80.8077 183.03 80.6435 183.023" fill="#0D62FF"/>
<path d="M106.798 191.448L109.192 185.606L111.582 191.448H106.798ZM109.174 183.028C109.031 183.036 108.892 183.083 108.774 183.164C108.655 183.245 108.561 183.357 108.502 183.488C108.373 183.714 102.572 198.009 102.572 198.009C102.536 198.095 102.517 198.187 102.517 198.281C102.515 198.374 102.533 198.466 102.568 198.553C102.603 198.639 102.656 198.717 102.722 198.783C102.788 198.849 102.867 198.901 102.953 198.935C103.04 198.97 103.132 198.987 103.226 198.985C103.371 198.986 103.512 198.942 103.632 198.86C103.751 198.777 103.842 198.66 103.893 198.525L106.158 193H112.24L114.63 198.907H116.168C116.168 198.907 109.989 183.714 109.86 183.474C109.793 183.349 109.695 183.243 109.574 183.167C109.454 183.091 109.316 183.048 109.174 183.041" fill="#0D62FF"/>
<path d="M140.416 183.893C140.415 183.682 140.331 183.48 140.182 183.331C140.032 183.182 139.831 183.098 139.62 183.096H130.702C130.597 183.096 130.493 183.116 130.396 183.156C130.299 183.196 130.211 183.254 130.137 183.328C130.063 183.402 130.004 183.491 129.965 183.587C129.925 183.684 129.905 183.788 129.905 183.893C129.905 183.996 129.926 184.099 129.966 184.194C130.007 184.29 130.066 184.376 130.14 184.448C130.214 184.52 130.302 184.577 130.399 184.614C130.495 184.652 130.598 184.669 130.702 184.666H134.454V198.907H135.904V184.68H139.638C139.741 184.683 139.843 184.666 139.939 184.628C140.034 184.59 140.121 184.533 140.194 184.461C140.267 184.389 140.324 184.302 140.362 184.207C140.4 184.112 140.419 184.009 140.416 183.907" fill="#0D62FF"/>
<path d="M79.8092 204.358C79.6414 204.348 79.4732 204.372 79.3155 204.431C79.1577 204.489 79.0139 204.579 78.893 204.696C78.7722 204.813 78.677 204.954 78.6136 205.11C78.5502 205.266 78.5199 205.433 78.5247 205.601V220.334H81.0984V205.601C81.1025 205.433 81.0716 205.265 81.0077 205.11C80.9438 204.954 80.8482 204.813 80.727 204.696C80.6058 204.579 80.4616 204.489 80.3036 204.431C80.1457 204.373 79.9773 204.348 79.8092 204.358Z" fill="#0D62FF"/>
<path d="M50.6112 214.022V205.601C50.5915 205.273 50.4474 204.965 50.2082 204.74C49.9691 204.514 49.6529 204.389 49.3243 204.389C48.9958 204.389 48.6796 204.514 48.4404 204.74C48.2013 204.965 48.0571 205.273 48.0375 205.601V213.934C48.0375 217.502 50.5559 220.408 54.5982 220.408C58.6405 220.408 61.1589 217.502 61.1589 213.934V204.432H58.5669V214.003C58.5669 216.112 57.1534 217.99 54.5982 217.99C52.043 217.99 50.6112 216.149 50.6112 214.022Z" fill="#0D62FF"/>
<path d="M112.94 206.954C113.114 206.973 113.291 206.954 113.458 206.9C113.625 206.846 113.778 206.757 113.909 206.64C114.039 206.522 114.144 206.379 114.215 206.219C114.286 206.058 114.323 205.885 114.323 205.709C114.323 205.534 114.286 205.36 114.215 205.2C114.144 205.039 114.039 204.896 113.909 204.778C113.778 204.661 113.625 204.572 113.458 204.518C113.291 204.464 113.114 204.445 112.94 204.464H105.058C104.892 204.458 104.727 204.486 104.573 204.547C104.418 204.607 104.278 204.699 104.161 204.816C104.044 204.933 103.951 205.073 103.89 205.227C103.829 205.381 103.8 205.546 103.805 205.711V219.127C103.803 219.291 103.833 219.454 103.896 219.606C103.958 219.757 104.051 219.895 104.168 220.009C104.285 220.124 104.424 220.213 104.577 220.272C104.73 220.331 104.894 220.358 105.058 220.352H114.21V217.861H106.384V213.257H112.295C113.184 213.257 113.676 212.732 113.676 212.014C113.676 211.296 113.188 210.767 112.295 210.767H106.379V206.964L112.94 206.954Z" fill="#0D62FF"/>
<path d="M39.4272 217.88H35.4033V213.138H39.4272C41.2688 213.138 42.1666 214.201 42.1666 215.518C42.1666 216.835 41.2458 217.88 39.4272 217.88ZM35.4033 206.936H39.266C40.7163 206.936 41.4207 207.802 41.4207 208.865C41.4207 209.929 40.6426 210.794 39.266 210.794H35.4033V206.936ZM42.4198 211.734C42.8526 211.462 44.0312 210.541 44.0312 208.469C44.0312 206.034 42.2725 204.427 39.5929 204.427H34.0681C33.902 204.419 33.7359 204.445 33.5807 204.505C33.4254 204.564 33.2844 204.656 33.1668 204.773C33.0491 204.891 32.9575 205.032 32.8979 205.187C32.8382 205.343 32.8118 205.509 32.8204 205.675V220.316H39.906C40.5414 220.343 41.1755 220.239 41.7695 220.012C42.3635 219.785 42.9046 219.439 43.3596 218.994C43.8147 218.55 44.174 218.017 44.4154 217.429C44.6567 216.841 44.7751 216.209 44.7632 215.573C44.7632 212.76 42.8572 211.95 42.406 211.734" fill="#0D62FF"/>
<path d="M87.4614 204.358C87.2951 204.349 87.1286 204.373 86.9722 204.431C86.8158 204.488 86.6728 204.577 86.552 204.692C86.4312 204.806 86.3352 204.945 86.2699 205.098C86.2046 205.251 86.1714 205.416 86.1723 205.583V219.165C86.1918 219.49 86.3349 219.796 86.5724 220.02C86.8098 220.243 87.1237 220.368 87.4499 220.368C87.7761 220.368 88.0899 220.243 88.3274 220.02C88.5648 219.796 88.7079 219.49 88.7275 219.165V209.358C88.7275 209.358 94.9981 217.328 96.6464 219.436C97.0653 219.961 97.3554 220.412 98.0967 220.412C98.261 220.419 98.425 220.392 98.5786 220.333C98.7322 220.274 98.872 220.185 98.9894 220.069C99.1068 219.954 99.1993 219.816 99.2611 219.664C99.323 219.511 99.3529 219.348 99.3489 219.183V204.45H96.8121V215.481L88.8564 205.33C88.396 204.749 88.0553 204.372 87.4752 204.372" fill="#0D62FF"/>
<path d="M64.1516 218.064C64.4785 218.479 65.9932 220.426 69.2989 220.426C72.6046 220.426 74.773 218.584 74.773 215.951C74.773 214.238 74.1009 212.871 71.5502 211.642C70.8596 211.338 68.9628 210.417 68.9628 210.417C67.9499 209.929 67.4941 209.353 67.4941 208.575C67.4941 207.797 68.1847 206.844 69.8698 206.844C70.5922 206.849 71.3045 207.014 71.9554 207.328C72.2925 207.504 72.6624 207.609 73.0419 207.636C73.2004 207.639 73.3578 207.61 73.5045 207.55C73.6511 207.49 73.7838 207.4 73.8944 207.287C74.0049 207.173 74.0909 207.038 74.147 206.89C74.2032 206.742 74.2282 206.584 74.2206 206.425C74.2087 206.15 74.1146 205.884 73.9505 205.663C73.7864 205.441 73.5598 205.274 73.2998 205.182C72.1966 204.639 70.9795 204.367 69.7501 204.39C66.9002 204.39 64.8008 206.177 64.8008 208.663C64.8008 210.937 66.3385 212.07 68.1893 212.954C68.5346 213.115 69.9112 213.782 70.2934 213.967C71.4674 214.524 72.0843 215.062 72.0843 216.038C72.0843 217.102 71.0898 217.986 69.5843 217.986C68.9137 217.987 68.251 217.841 67.6431 217.558C67.0352 217.275 66.4971 216.861 66.0669 216.347L64.1516 218.064Z" fill="#0D62FF"/>
<path d="M116.844 218.064C117.171 218.478 118.685 220.426 122.009 220.426C125.232 220.426 127.465 218.584 127.465 215.951C127.465 214.238 126.793 212.871 124.242 211.641L121.65 210.398C120.637 209.91 120.182 209.335 120.182 208.557C120.182 207.779 120.872 206.825 122.557 206.825C123.279 206.834 123.991 206.999 124.643 207.309C124.98 207.485 125.35 207.59 125.729 207.617C125.888 207.621 126.045 207.591 126.192 207.531C126.339 207.471 126.471 207.382 126.582 207.268C126.692 207.155 126.778 207.019 126.834 206.871C126.891 206.723 126.916 206.565 126.908 206.407C126.896 206.131 126.802 205.866 126.638 205.644C126.474 205.422 126.247 205.255 125.987 205.163C124.881 204.624 123.663 204.352 122.433 204.372C119.588 204.372 117.488 206.158 117.488 208.644C117.488 210.918 119.026 212.051 120.877 212.935C121.24 213.096 122.617 213.764 122.995 213.948C124.155 214.505 124.772 215.044 124.772 216.02C124.772 217.083 123.777 217.967 122.272 217.967C121.6 217.973 120.936 217.829 120.328 217.545C119.719 217.262 119.182 216.846 118.754 216.328L116.844 218.064Z" fill="#0D62FF"/>
<path d="M129.924 218.064C130.251 218.479 131.765 220.426 135.071 220.426C138.294 220.426 140.545 218.584 140.545 215.951C140.545 214.238 139.855 212.871 137.322 211.642L134.707 210.417C133.713 209.929 133.257 209.353 133.257 208.575C133.257 207.797 133.948 206.844 135.614 206.844C136.342 206.852 137.06 207.017 137.718 207.328C138.048 207.507 138.412 207.612 138.786 207.636C138.945 207.639 139.102 207.61 139.249 207.55C139.396 207.49 139.528 207.4 139.639 207.287C139.749 207.173 139.835 207.038 139.892 206.89C139.948 206.742 139.973 206.584 139.965 206.425C139.953 206.15 139.859 205.884 139.695 205.663C139.531 205.441 139.304 205.274 139.044 205.182C137.941 204.639 136.724 204.367 135.495 204.39C132.649 204.39 130.545 206.177 130.545 208.663C130.545 210.937 132.069 212.07 133.934 212.954C134.279 213.115 135.656 213.782 136.038 213.967C137.217 214.524 137.833 215.062 137.833 216.038C137.833 217.102 136.834 217.986 135.329 217.986C134.659 217.988 133.996 217.843 133.389 217.559C132.782 217.276 132.245 216.862 131.816 216.347L129.924 218.064Z" fill="#0D62FF"/>
</svg>
