<?xml version="1.0" encoding="utf-8"?>
<!-- Generator: Adobe Illustrator 27.2.0, SVG Export Plug-In . SVG Version: 6.00 Build 0)  -->
<svg version="1.1" id="Layer_1" xmlns="http://www.w3.org/2000/svg" xmlns:xlink="http://www.w3.org/1999/xlink" x="0px" y="0px"
	 viewBox="0 0 158 55" style="enable-background:new 0 0 158 55;" xml:space="preserve">
<style type="text/css">
	.st0{fill:#FFFFFF;}
</style>
<path class="st0" d="M35.5,21c-1.8,0-3.6-0.6-5.2-1.6c-1.5-1-2.7-2.5-3.4-4.2c-0.7-1.7-0.9-3.6-0.5-5.4C26.8,8,27.7,6.3,29,5
	c1.3-1.3,3-2.2,4.8-2.5c1.8-0.4,3.7-0.2,5.4,0.5c1.7,0.7,3.2,1.9,4.2,3.4c1,1.5,1.6,3.3,1.6,5.2c0,2.5-1,4.9-2.8,6.6
	C40.4,20,38,21,35.5,21z M35.5,0c-2.3,0-4.5,0.7-6.4,2c-1.9,1.3-3.4,3.1-4.3,5.2c-0.9,2.1-1.1,4.5-0.6,6.7c0.5,2.2,1.6,4.3,3.2,5.9
	c1.6,1.6,3.7,2.7,5.9,3.2c2.3,0.4,4.6,0.2,6.7-0.7c2.1-0.9,3.9-2.4,5.2-4.3c1.3-1.9,2-4.2,2-6.4c0-3.1-1.2-6-3.4-8.2
	C41.6,1.3,38.6,0,35.5,0z"/>
<path class="st0" d="M136.1,11.8c-0.6-0.3-4.4-2.3-5-2.6c-2-1-2.7-1.9-2.7-3.4c0-2.1,1.7-3.5,4.5-3.5c1.4,0.1,2.8,0.5,4,1.2
	c0.2,0.1,0.4,0.1,0.5,0.1c0.2,0,0.3,0,0.4-0.1s0.3-0.1,0.4-0.2c0.1-0.1,0.2-0.2,0.3-0.4c0.1-0.1,0.1-0.3,0.1-0.4
	c0-0.2-0.1-0.4-0.2-0.6s-0.2-0.3-0.4-0.4c-1.6-0.9-3.3-1.4-5.1-1.5c-4,0-6.7,2.4-6.7,5.8c0,3,2,4.5,4,5.5c0.6,0.3,4.4,2.3,5,2.6
	c1.5,0.8,2.4,2,2.4,3.3c0,1.8-1.6,3.8-4.4,3.8c-2.1-0.1-4.1-1-5.6-2.5l-0.2-0.2l-1.7,1.6l0.2,0.2c0.8,0.7,3.5,3.2,7.3,3.2
	c4.2,0,6.7-3.1,6.7-6.1C139.8,15,138.4,13,136.1,11.8"/>
<path class="st0" d="M11.6,2.3c2.5,0,4.9,1,6.6,2.7c0.2,0.2,0.5,0.3,0.8,0.3c0.3,0,0.6-0.1,0.8-0.3c0.1-0.1,0.2-0.2,0.3-0.4
	s0.1-0.3,0.1-0.4c0-0.2,0-0.3-0.1-0.4S20,3.5,19.9,3.4l-0.1-0.1c-1.7-1.6-3.8-2.7-6-3.1S9.1,0.1,6.9,1C4.8,1.9,3,3.5,1.8,5.4
	C0.6,7.4-0.1,9.7,0,12c0.1,2.3,0.8,4.6,2.2,6.4c1.3,1.9,3.2,3.3,5.4,4.1c2.2,0.8,4.5,0.9,6.8,0.4c2.3-0.5,4.3-1.7,5.9-3.5l-1.6-1.6
	c-1,1.2-2.3,2.1-3.8,2.6c-1.5,0.5-3.1,0.7-4.6,0.5c-1.6-0.2-3-0.9-4.3-1.8S3.6,17,3,15.5c-0.6-1.4-0.9-3-0.8-4.6
	c0.1-1.6,0.6-3.1,1.5-4.4s2-2.4,3.4-3.1C8.5,2.7,10,2.3,11.6,2.3z"/>
<path class="st0" d="M90.7,2.3c1.2,0,2.4,0.2,3.6,0.7c1.1,0.5,2.2,1.2,3,2c0.2,0.2,0.5,0.3,0.8,0.3c0.3,0,0.6-0.1,0.8-0.3
	c0.1-0.1,0.2-0.2,0.3-0.4s0.1-0.3,0.1-0.4c0-0.2,0-0.3-0.1-0.4c-0.1-0.1-0.1-0.3-0.3-0.4l-0.1-0.1c-1.7-1.6-3.8-2.7-6-3.1
	C90.5-0.2,88.1,0.1,86,1c-2.1,0.9-3.9,2.5-5.1,4.4c-1.2,2-1.9,4.2-1.8,6.6c0.1,2.3,0.8,4.6,2.2,6.4c1.3,1.9,3.2,3.3,5.4,4.1
	c2.2,0.8,4.5,0.9,6.8,0.4c2.3-0.5,4.3-1.7,5.9-3.5l-1.6-1.6c-1,1.2-2.4,2.1-3.8,2.6c-1.5,0.5-3.1,0.7-4.6,0.5
	c-1.6-0.2-3-0.9-4.3-1.8c-1.3-1-2.2-2.2-2.9-3.6c-0.6-1.4-0.9-3-0.8-4.6c0.1-1.6,0.6-3.1,1.5-4.4c0.9-1.3,2-2.4,3.4-3.1
	S89.1,2.3,90.7,2.3z"/>
<path class="st0" d="M70.9,0c-0.2,0-0.4,0.1-0.6,0.2c-0.2,0.1-0.3,0.3-0.4,0.4c-0.2,0.4-6.9,16.8-6.9,16.8S56.4,1,56.2,0.7
	c-0.1-0.2-0.2-0.3-0.4-0.5C55.7,0.1,55.5,0,55.3,0c-0.2,0-0.5,0.1-0.7,0.2c-0.2,0.2-0.3,0.4-0.4,0.6C54.1,1.3,50.4,22,50.4,22
	s0,0.1,0,0.2c0,0.3,0.1,0.5,0.3,0.7c0.2,0.2,0.5,0.3,0.7,0.3c0.2,0,0.5-0.1,0.7-0.2c0.2-0.2,0.3-0.4,0.4-0.6l3.3-17.7
	c0,0,6.3,15.5,6.5,15.8c0.1,0.2,0.2,0.4,0.4,0.5c0.2,0.1,0.4,0.2,0.6,0.2c0.2,0,0.4-0.1,0.6-0.2c0.2-0.1,0.3-0.3,0.4-0.5
	c0.2-0.4,6.5-15.8,6.5-15.8L74,23.1h2.1c0,0-4-21.8-4.1-22.3c-0.1-0.2-0.2-0.4-0.4-0.6S71.2,0,70.9,0"/>
<path class="st0" d="M108.9,12.3l3.5-8.5l3.5,8.5H108.9z M112.4,0c-0.2,0-0.4,0.1-0.6,0.2c-0.2,0.1-0.3,0.3-0.4,0.5
	c-0.2,0.3-8.6,21.1-8.6,21.1c-0.1,0.1-0.1,0.3-0.1,0.4c0,0.1,0,0.3,0.1,0.4c0.1,0.1,0.1,0.2,0.2,0.3c0.1,0.1,0.2,0.2,0.3,0.2
	c0.1,0.1,0.3,0.1,0.4,0.1c0.2,0,0.4-0.1,0.6-0.2c0.2-0.1,0.3-0.3,0.4-0.5l3.3-8h8.8l3.5,8.6h2.2c0,0-9-22.1-9.2-22.4
	c-0.1-0.2-0.2-0.3-0.4-0.4C112.8,0.1,112.6,0.1,112.4,0"/>
<path class="st0" d="M157.8,1.3c0-0.3-0.1-0.6-0.3-0.8c-0.2-0.2-0.5-0.3-0.8-0.3h-13c-0.2,0-0.3,0-0.4,0.1s-0.3,0.1-0.4,0.3
	c-0.1,0.1-0.2,0.2-0.3,0.4s-0.1,0.3-0.1,0.4c0,0.2,0,0.3,0.1,0.4c0.1,0.1,0.1,0.3,0.3,0.4c0.1,0.1,0.2,0.2,0.4,0.2
	c0.1,0.1,0.3,0.1,0.4,0.1h5.5v20.7h2.1V2.4h5.4c0.1,0,0.3,0,0.4-0.1c0.1-0.1,0.3-0.1,0.4-0.2c0.1-0.1,0.2-0.2,0.2-0.4
	C157.8,1.6,157.8,1.5,157.8,1.3"/>
<path class="st0" d="M69.7,31c-0.2,0-0.5,0-0.7,0.1c-0.2,0.1-0.4,0.2-0.6,0.4c-0.2,0.2-0.3,0.4-0.4,0.6c-0.1,0.2-0.1,0.5-0.1,0.7
	v21.4h3.7V32.9c0-0.2,0-0.5-0.1-0.7c-0.1-0.2-0.2-0.4-0.4-0.6c-0.2-0.2-0.4-0.3-0.6-0.4C70.2,31.1,70,31,69.7,31z"/>
<path class="st0" d="M27.3,45.1V32.9c0-0.5-0.2-0.9-0.6-1.3c-0.3-0.3-0.8-0.5-1.3-0.5c-0.5,0-0.9,0.2-1.3,0.5
	c-0.3,0.3-0.6,0.8-0.6,1.3V45c0,5.2,3.7,9.4,9.5,9.4c5.9,0,9.5-4.2,9.5-9.4V31.2h-3.8v13.9c0,3.1-2.1,5.8-5.8,5.8
	C29.4,50.9,27.3,48.2,27.3,45.1z"/>
<path class="st0" d="M117.9,34.8c0.3,0,0.5,0,0.8-0.1c0.2-0.1,0.5-0.2,0.7-0.4c0.2-0.2,0.3-0.4,0.4-0.6c0.1-0.2,0.2-0.5,0.2-0.7
	c0-0.3-0.1-0.5-0.2-0.7c-0.1-0.2-0.3-0.4-0.4-0.6c-0.2-0.2-0.4-0.3-0.7-0.4c-0.2-0.1-0.5-0.1-0.8-0.1h-11.5c-0.2,0-0.5,0-0.7,0.1
	s-0.4,0.2-0.6,0.4c-0.2,0.2-0.3,0.4-0.4,0.6c-0.1,0.2-0.1,0.5-0.1,0.7v19.5c0,0.2,0,0.5,0.1,0.7c0.1,0.2,0.2,0.4,0.4,0.6
	c0.2,0.2,0.4,0.3,0.6,0.4c0.2,0.1,0.5,0.1,0.7,0.1h13.3v-3.6h-11.4V44h8.6c1.3,0,2-0.8,2-1.8c0-1-0.7-1.8-2-1.8h-8.6v-5.5
	L117.9,34.8z"/>
<path class="st0" d="M11,50.7H5.2v-6.9H11c2.7,0,4,1.5,4,3.5C15,49.2,13.7,50.7,11,50.7z M5.2,34.8h5.6c2.1,0,3.1,1.3,3.1,2.8
	c0,1.5-1.1,2.8-3.1,2.8H5.2V34.8z M15.4,41.8c0.6-0.4,2.3-1.7,2.3-4.7c0-3.5-2.6-5.9-6.5-5.9h-8c-0.2,0-0.5,0-0.7,0.1
	c-0.2,0.1-0.4,0.2-0.6,0.4c-0.2,0.2-0.3,0.4-0.4,0.6S1.4,32.7,1.4,33v21.3h10.3c0.9,0,1.8-0.1,2.7-0.4c0.9-0.3,1.6-0.8,2.3-1.5
	c0.7-0.6,1.2-1.4,1.5-2.3c0.4-0.9,0.5-1.8,0.5-2.7C18.8,43.3,16,42.1,15.4,41.8"/>
<path class="st0" d="M80.8,31c-0.2,0-0.5,0-0.7,0.1c-0.2,0.1-0.4,0.2-0.6,0.4c-0.2,0.2-0.3,0.4-0.4,0.6C79,32.3,79,32.6,79,32.8
	v19.7c0,0.5,0.2,0.9,0.6,1.2c0.3,0.3,0.8,0.5,1.3,0.5c0.5,0,0.9-0.2,1.3-0.5c0.3-0.3,0.6-0.8,0.6-1.2V38.3c0,0,9.1,11.6,11.5,14.6
	c0.6,0.8,1,1.4,2.1,1.4c0.2,0,0.5,0,0.7-0.1c0.2-0.1,0.4-0.2,0.6-0.4c0.2-0.2,0.3-0.4,0.4-0.6s0.1-0.5,0.1-0.7V31.2h-3.7v16
	L82.9,32.5C82.2,31.6,81.7,31.1,80.8,31"/>
<path class="st0" d="M47,51c0.5,0.6,2.7,3.4,7.5,3.4s8-2.7,8-6.5c0-2.5-1-4.5-4.7-6.3c-1-0.4-3.8-1.8-3.8-1.8
	c-1.5-0.7-2.1-1.5-2.1-2.7c0-1.1,1-2.5,3.5-2.5c1.1,0,2.1,0.2,3,0.7c0.5,0.3,1,0.4,1.6,0.4c0.2,0,0.5,0,0.7-0.1
	c0.2-0.1,0.4-0.2,0.6-0.4c0.2-0.2,0.3-0.4,0.4-0.6c0.1-0.2,0.1-0.4,0.1-0.7c0-0.4-0.2-0.8-0.4-1.1c-0.2-0.3-0.6-0.6-0.9-0.7
	c-1.6-0.8-3.4-1.2-5.2-1.2c-4.1,0-7.2,2.6-7.2,6.2c0,3.3,2.2,5,4.9,6.2c0.5,0.2,2.5,1.2,3.1,1.5c1.7,0.8,2.6,1.6,2.6,3
	c0,1.5-1.4,2.8-3.6,2.8c-1,0-1.9-0.2-2.8-0.6c-0.9-0.4-1.7-1-2.3-1.8L47,51z"/>
<path class="st0" d="M123.5,51c0.5,0.6,2.7,3.4,7.5,3.4c4.7,0,7.9-2.7,7.9-6.5c0-2.5-1-4.5-4.7-6.3l-3.8-1.8
	c-1.5-0.7-2.1-1.5-2.1-2.7c0-1.1,1-2.5,3.5-2.5c1,0,2.1,0.3,3,0.7c0.5,0.3,1,0.4,1.6,0.4c0.2,0,0.5,0,0.7-0.1
	c0.2-0.1,0.4-0.2,0.6-0.4s0.3-0.4,0.4-0.6c0.1-0.2,0.1-0.4,0.1-0.7c0-0.4-0.2-0.8-0.4-1.1c-0.2-0.3-0.6-0.6-0.9-0.7
	c-1.6-0.8-3.4-1.2-5.2-1.2c-4.1,0-7.2,2.6-7.2,6.2c0,3.3,2.2,5,4.9,6.2c0.5,0.2,2.5,1.2,3.1,1.5c1.7,0.8,2.6,1.6,2.6,3
	c0,1.5-1.4,2.8-3.6,2.8c-1,0-1.9-0.2-2.8-0.6c-0.9-0.4-1.7-1-2.3-1.8L123.5,51z"/>
<path class="st0" d="M142.6,51c0.5,0.6,2.7,3.4,7.5,3.4c4.7,0,8-2.7,8-6.5c0-2.5-1-4.5-4.7-6.3l-3.8-1.8c-1.4-0.7-2.1-1.5-2.1-2.7
	c0-1.1,1-2.5,3.4-2.5c1.1,0,2.1,0.3,3.1,0.7c0.5,0.3,1,0.4,1.6,0.4c0.2,0,0.5,0,0.7-0.1c0.2-0.1,0.4-0.2,0.6-0.4
	c0.2-0.2,0.3-0.4,0.4-0.6s0.1-0.4,0.1-0.7c0-0.4-0.2-0.8-0.4-1.1c-0.2-0.3-0.6-0.6-0.9-0.7c-1.6-0.8-3.4-1.2-5.2-1.2
	c-4.1,0-7.2,2.6-7.2,6.2c0,3.3,2.2,5,4.9,6.2c0.5,0.2,2.5,1.2,3.1,1.5c1.7,0.8,2.6,1.6,2.6,3c0,1.5-1.5,2.8-3.6,2.8
	c-1,0-1.9-0.2-2.8-0.6c-0.9-0.4-1.7-1-2.3-1.8L142.6,51z"/>
</svg>
